<?xml version="1.0" encoding="UTF-8" standalone="no"?>
<!-- Created with Inkscape (http://www.inkscape.org/) -->

<svg
   width="187.92162mm"
   height="137.32204mm"
   viewBox="0 0 187.92162 137.32204"
   version="1.1"
   id="svg5"
   sodipodi:docname="coherent_auto_logo_sized.svg"
   inkscape:version="1.2.2 (b0a8486541, 2022-12-01)"
   xmlns:inkscape="http://www.inkscape.org/namespaces/inkscape"
   xmlns:sodipodi="http://sodipodi.sourceforge.net/DTD/sodipodi-0.dtd"
   xmlns="http://www.w3.org/2000/svg"
   xmlns:svg="http://www.w3.org/2000/svg">
  <sodipodi:namedview
     id="namedview18"
     pagecolor="#ffffff"
     bordercolor="#666666"
     borderopacity="1.0"
     inkscape:pageshadow="2"
     inkscape:pageopacity="0.0"
     inkscape:pagecheckerboard="0"
     inkscape:document-units="mm"
     showgrid="false"
     fit-margin-top="0"
     fit-margin-left="0"
     fit-margin-right="0"
     fit-margin-bottom="0"
     inkscape:zoom="0.74920735"
     inkscape:cx="-6.0063479"
     inkscape:cy="461.82142"
     inkscape:window-width="1920"
     inkscape:window-height="1007"
     inkscape:window-x="0"
     inkscape:window-y="37"
     inkscape:window-maximized="1"
     inkscape:current-layer="svg5"
     inkscape:showpageshadow="2"
     inkscape:deskcolor="#d1d1d1" />
  <defs
     id="defs2" />
  <g
     id="layer1"
     transform="translate(-11.911447,-69.694141)">
    <g
       id="g849"
       transform="matrix(2.3279819,0,0,2.3279819,-69.656698,-93.350285)">
      <g
         id="g15172">
        <path
           style="fill:#333399;fill-opacity:1;stroke:#333399;stroke-width:0.264583px;stroke-linecap:butt;stroke-linejoin:miter;stroke-opacity:1"
           d="M 69.299546,122.96621 C 52.777279,124.24045 41.602133,112.20151 41.710295,100.77328 41.818454,89.34505 51.007107,73.696203 69.177547,76.076786 l -0.07872,5.303415 c 0,0 -20.242002,-1.610172 -20.8086,18.850939 -0.466772,16.8562 20.890681,17.36973 20.890681,17.36973 z"
           id="path1092" />
        <path
           style="fill:#333399;fill-opacity:1;stroke:#333399;paint-order:stroke fill markers;stroke-opacity:1"
           d="m 59.441591,70.53685 c 2.40643,0 4.812859,0 7.219289,0 0.383702,0.0087 0.424313,0.432791 0.4,0.728216 0,2.337516 0,4.675032 0,7.012548 0.02032,0.386842 -0.378911,0.485482 -0.683216,0.445 -2.312024,0 -4.624049,0 -6.936073,0 -0.383701,-0.0087 -0.424312,-0.432792 -0.399999,-0.728216 0,-2.337516 0,-4.675032 0,-7.012548 -0.0061,-0.22109 0.167097,-0.448002 0.399999,-0.445 z"
           id="rect3125" />
        <rect
           style="fill:#333399;fill-opacity:1;stroke:#333399;stroke-width:1;stroke-miterlimit:4;stroke-dasharray:none;stroke-opacity:1;paint-order:stroke fill markers"
           id="rect3125-6"
           width="8.0192881"
           height="8.1857643"
           x="-32.686916"
           y="86.441483"
           rx="0.39999971"
           ry="0.44500005"
           transform="rotate(-46.905384)" />
        <rect
           style="fill:#333399;fill-opacity:1;stroke:#333399;stroke-width:1;stroke-miterlimit:4;stroke-dasharray:none;stroke-opacity:1;paint-order:stroke fill markers"
           id="rect3125-3"
           width="8.0192881"
           height="8.1857643"
           x="35.538136"
           y="95.365364"
           rx="0.39999971"
           ry="0.44500005" />
        <rect
           style="fill:#333399;fill-opacity:1;stroke:#333399;stroke-width:1;stroke-miterlimit:4;stroke-dasharray:none;stroke-opacity:1;paint-order:stroke fill markers"
           id="rect3125-7"
           width="8.0192881"
           height="8.1857643"
           x="59.201511"
           y="120.33863"
           rx="0.39999971"
           ry="0.44500005" />
        <rect
           style="fill:#333399;fill-opacity:1;stroke:#333399;stroke-width:1;stroke-miterlimit:4;stroke-dasharray:none;stroke-opacity:1;paint-order:stroke fill markers"
           id="rect3125-5"
           width="8.0192881"
           height="8.1857643"
           x="-59.140934"
           y="109.79301"
           rx="0.39999971"
           ry="0.44500005"
           transform="rotate(-47.542719)" />
      </g>
      <path
         id="path6393"
         style="color:#000000;fill:#333399;fill-opacity:1;stroke:#333399;stroke-width:0.467975;stroke-miterlimit:4;stroke-dasharray:none;stroke-dashoffset:0;stroke-opacity:1;paint-order:stroke fill markers"
         d="M 89.006966,70.883337 115.33498,128.38731 89.019484,84.400209 62.329113,128.821 Z" />
      <path
         style="fill:none;fill-opacity:1;stroke:#000000;stroke-width:1;stroke-linecap:butt;stroke-linejoin:round;stroke-miterlimit:4;stroke-dasharray:none;stroke-opacity:1"
         d="m 51.855071,88.618016 9.876021,10.858767 -9.413969,11.134337 9.413969,-11.134337 53.670418,5.38e-4"
         id="path9531"
         sodipodi:nodetypes="ccccc" />
      <path
         style="fill:none;stroke:#000000;stroke-width:1;stroke-linecap:butt;stroke-linejoin:miter;stroke-miterlimit:4;stroke-dasharray:none;stroke-opacity:1"
         d="m 61.539177,99.477315 -13.367274,3e-6"
         id="path9701"
         sodipodi:nodetypes="cc" />
      <path
         style="fill:none;stroke:#000000;stroke-width:1;stroke-linecap:butt;stroke-linejoin:miter;stroke-miterlimit:4;stroke-dasharray:none;stroke-opacity:1"
         d="m 63.635081,116.84962 -10e-7,-35.061502"
         id="path9701-3"
         sodipodi:nodetypes="cc" />
      <path
         style="fill:#000000;fill-opacity:1;stroke:#000000;stroke-width:0.264583px;stroke-linecap:butt;stroke-linejoin:round;stroke-opacity:1"
         d="m 111.45815,103.71277 v -8.092574 l 4.17067,3.857125 z"
         id="path13372" />
    </g>
  </g>
</svg>
